#N canvas 1 79 1265 944 10;
#X obj 1 1 cnv 15 300 320 empty empty active_quad 20 12 0 14 -1 -262144
0;
#X msg 502 150 0;
#X msg 537 150 1;
#X msg 569 150 2;
#X msg 603 150 3;
#X msg 639 150 4;
#X msg 672 150 5;
#X msg 705 150 6;
#X msg 740 150 7;
#X msg 773 150 8;
#X msg 807 150 9;
#X msg 840 150 10;
#X msg 874 150 11;
#X msg 908 150 12;
#X msg 943 150 13;
#X msg 977 150 14;
#X msg 1010 150 15;
#X msg 1045 150 16;
#X text 13 -238 set active quad;
#X obj 632 456 s osc;
#X msg 632 379 send /active/set \$1;
#X obj 209 -178 s osc;
#X msg 209 -240 send /active/set \$1;
#X msg 434 -77 17;
#X msg 473 -77 18;
#X msg 513 -77 19;
#X msg 547 -77 20;
#X msg 583 -77 21;
#X msg 616 -77 22;
#X msg 649 -77 23;
#X msg 684 -77 24;
#X msg 717 -77 25;
#X msg 751 -77 26;
#X msg 784 -77 27;
#X msg 818 -77 28;
#X msg 849 -77 29;
#X msg 887 -77 30;
#X msg 921 -77 31;
#X msg 954 -77 32;
#X msg 989 -77 33;
#X msg 1019 -75 34;
#X msg 1053 -74 35;
#X obj 62 35 bng 40 250 50 0 empty empty 1 15 20 0 20 -191407 -99865
-262144;
#X obj 107 35 bng 40 250 50 0 empty empty 2 15 20 0 20 -191407 -99865
-262144;
#X obj 153 35 bng 40 250 50 0 empty empty 3 15 20 0 20 -191407 -99865
-262144;
#X obj 201 35 bng 40 250 50 0 empty empty 4 15 20 0 20 -191407 -99865
-262144;
#X obj 249 35 bng 40 250 50 0 empty empty 5 15 20 0 20 -191407 -99865
-262144;
#X obj 14 83 bng 40 250 50 0 empty empty 6 15 20 0 20 -191407 -99865
-262144;
#X obj 249 129 bng 40 250 50 0 empty empty 17 9 20 0 20 -191407 -99865
-262144;
#X obj 249 82 bng 40 250 50 0 empty empty 11 9 20 0 20 -191407 -99865
-262144;
#X obj 13 36 bng 40 250 50 0 empty empty 0 15 20 0 20 -191407 -99865
-262144;
#X obj 15 270 bng 40 250 50 0 empty empty 30 9 20 0 20 -191407 -99865
-262144;
#X obj 15 223 bng 40 250 50 0 empty empty 24 9 20 0 20 -191407 -99865
-262144;
#X obj 15 176 bng 40 250 50 0 empty empty 18 9 20 0 20 -191407 -99865
-262144;
#X obj 15 129 bng 40 250 50 0 empty empty 12 9 20 0 20 -191407 -99865
-262144;
#X obj 205 270 bng 40 250 50 0 empty empty 34 9 20 0 20 -191407 -99865
-262144;
#X obj 201 222 bng 40 250 50 0 empty empty 28 9 20 0 20 -191407 -99865
-262144;
#X obj 201 175 bng 40 250 50 0 empty empty 22 9 20 0 20 -191407 -99865
-262144;
#X obj 201 128 bng 40 250 50 0 empty empty 16 9 20 0 20 -191407 -99865
-262144;
#X obj 201 81 bng 40 250 50 0 empty empty 10 9 20 0 20 -191407 -99865
-262144;
#X obj 161 271 bng 40 250 50 0 empty empty 33 9 20 0 20 -191407 -99865
-262144;
#X obj 157 223 bng 40 250 50 0 empty empty 27 9 20 0 20 -191407 -99865
-262144;
#X obj 157 176 bng 40 250 50 0 empty empty 21 9 20 0 20 -191407 -99865
-262144;
#X obj 157 129 bng 40 250 50 0 empty empty 15 9 20 0 20 -191407 -99865
-262144;
#X obj 157 82 bng 40 250 50 0 empty empty 9 15 20 0 20 -191407 -99865
-262144;
#X obj 114 271 bng 40 250 50 0 empty empty 32 9 20 0 20 -191407 -99865
-262144;
#X obj 110 223 bng 40 250 50 0 empty empty 26 9 20 0 20 -191407 -99865
-262144;
#X obj 110 176 bng 40 250 50 0 empty empty 20 9 20 0 20 -191407 -99865
-262144;
#X obj 110 129 bng 40 250 50 0 empty empty 14 9 20 0 20 -191407 -99865
-262144;
#X obj 110 82 bng 40 250 50 0 empty empty 8 15 20 0 20 -191407 -99865
-262144;
#X obj 66 271 bng 40 250 50 0 empty empty 31 9 20 0 20 -191407 -99865
-262144;
#X obj 62 223 bng 40 250 50 0 empty empty 25 9 20 0 20 -191407 -99865
-262144;
#X obj 62 176 bng 40 250 50 0 empty empty 19 9 20 0 20 -191407 -99865
-262144;
#X obj 62 129 bng 40 250 50 0 empty empty 13 9 20 0 20 -191407 -99865
-262144;
#X obj 62 82 bng 40 250 50 0 empty empty 7 15 20 0 20 -191407 -99865
-262144;
#X obj 252 270 bng 40 250 50 0 empty empty 35 9 20 0 20 -191407 -99865
-262144;
#X obj 248 222 bng 40 250 50 0 empty empty 29 9 20 0 20 -191407 -99865
-262144;
#X obj 248 175 bng 40 250 50 0 empty empty 23 9 20 0 20 -191407 -99865
-262144;
#X floatatom 117 5 5 0 35 0 - - -;
#X connect 1 0 20 0;
#X connect 1 0 78 0;
#X connect 2 0 20 0;
#X connect 2 0 78 0;
#X connect 3 0 20 0;
#X connect 3 0 78 0;
#X connect 4 0 20 0;
#X connect 4 0 78 0;
#X connect 5 0 20 0;
#X connect 5 0 78 0;
#X connect 6 0 20 0;
#X connect 6 0 78 0;
#X connect 7 0 20 0;
#X connect 7 0 78 0;
#X connect 8 0 20 0;
#X connect 8 0 78 0;
#X connect 9 0 20 0;
#X connect 9 0 78 0;
#X connect 10 0 20 0;
#X connect 10 0 78 0;
#X connect 11 0 20 0;
#X connect 11 0 78 0;
#X connect 12 0 20 0;
#X connect 12 0 78 0;
#X connect 13 0 20 0;
#X connect 13 0 78 0;
#X connect 14 0 20 0;
#X connect 14 0 78 0;
#X connect 15 0 20 0;
#X connect 15 0 78 0;
#X connect 16 0 20 0;
#X connect 16 0 78 0;
#X connect 17 0 20 0;
#X connect 17 0 78 0;
#X connect 20 0 19 0;
#X connect 22 0 21 0;
#X connect 23 0 22 0;
#X connect 23 0 78 0;
#X connect 24 0 22 0;
#X connect 24 0 78 0;
#X connect 25 0 22 0;
#X connect 25 0 78 0;
#X connect 26 0 22 0;
#X connect 26 0 78 0;
#X connect 27 0 22 0;
#X connect 27 0 78 0;
#X connect 28 0 22 0;
#X connect 29 0 22 0;
#X connect 29 0 78 0;
#X connect 30 0 22 0;
#X connect 30 0 78 0;
#X connect 31 0 22 0;
#X connect 31 0 78 0;
#X connect 32 0 22 0;
#X connect 32 0 78 0;
#X connect 33 0 22 0;
#X connect 33 0 78 0;
#X connect 34 0 22 0;
#X connect 34 0 78 0;
#X connect 35 0 22 0;
#X connect 35 0 78 0;
#X connect 36 0 22 0;
#X connect 36 0 78 0;
#X connect 37 0 22 0;
#X connect 37 0 78 0;
#X connect 38 0 22 0;
#X connect 38 0 78 0;
#X connect 39 0 22 0;
#X connect 39 0 78 0;
#X connect 40 0 22 0;
#X connect 40 0 78 0;
#X connect 41 0 22 0;
#X connect 41 0 78 0;
#X connect 42 0 2 0;
#X connect 43 0 3 0;
#X connect 44 0 4 0;
#X connect 45 0 5 0;
#X connect 46 0 6 0;
#X connect 47 0 7 0;
#X connect 48 0 23 0;
#X connect 49 0 12 0;
#X connect 50 0 1 0;
#X connect 51 0 36 0;
#X connect 52 0 30 0;
#X connect 53 0 24 0;
#X connect 54 0 13 0;
#X connect 55 0 40 0;
#X connect 56 0 34 0;
#X connect 57 0 28 0;
#X connect 58 0 17 0;
#X connect 59 0 11 0;
#X connect 60 0 39 0;
#X connect 61 0 33 0;
#X connect 62 0 27 0;
#X connect 63 0 16 0;
#X connect 64 0 10 0;
#X connect 65 0 38 0;
#X connect 66 0 32 0;
#X connect 67 0 26 0;
#X connect 68 0 15 0;
#X connect 69 0 9 0;
#X connect 70 0 37 0;
#X connect 71 0 31 0;
#X connect 72 0 25 0;
#X connect 73 0 14 0;
#X connect 74 0 8 0;
#X connect 75 0 41 0;
#X connect 76 0 35 0;
#X connect 77 0 29 0;
#X coords 0 -1 1 1 300 320 2 1 1;
