#N canvas 277 199 480 437 10;
#X obj 63 344 shell;
#X obj 63 367 print;
#X msg 63 321 winff;
#X obj 100 100 cnv 15 100 140 empty empty apps 20 12 0 14 -1 -262144
0;
#X obj 104 125 bng 15 250 50 0 empty empty winff_encoder 17 7 0 10
-262144 -1 -262144;
#X obj 63 419 shell;
#X obj 63 442 print;
#X msg 63 395 gimp;
#X obj 124 142 bng 15 250 50 0 empty empty gimp 17 7 0 10 -262144 -1
-262144;
#X obj 104 161 bng 15 250 50 0 empty empty blender_3d 17 7 0 10 -262144
-1 -262144;
#X obj 107 346 shell;
#X obj 107 369 print;
#X obj 110 421 shell;
#X obj 110 444 print;
#X obj 19 343 shell;
#X obj 19 366 print;
#X msg 19 320 vlc;
#X obj 121 178 bng 15 250 50 0 empty empty vlc 17 7 0 10 -262144 -1
-262144;
#X msg 110 397 nvidia-settings;
#X obj 104 195 bng 15 250 50 0 empty empty nvidia 17 7 0 10 -4034 -262144
-262144;
#X msg 107 322 blender -W;
#X obj 180 348 shell;
#X obj 180 371 print;
#X obj 104 223 bng 15 250 50 0 empty empty monitor 17 7 0 10 -262144
-1 -262144;
#X msg 313 324 gksu /usr/bin/amdcccle;
#X obj 120 209 bng 15 250 50 0 empty empty AMD 17 7 0 10 -258113 -1
-262144;
#X obj 313 354 shell;
#X obj 313 380 print;
#X msg 180 324 mate-system-monitor;
#X connect 0 0 1 0;
#X connect 2 0 0 0;
#X connect 4 0 2 0;
#X connect 5 0 6 0;
#X connect 7 0 5 0;
#X connect 8 0 7 0;
#X connect 9 0 20 0;
#X connect 10 0 11 0;
#X connect 12 0 13 0;
#X connect 14 0 15 0;
#X connect 16 0 14 0;
#X connect 17 0 16 0;
#X connect 18 0 12 0;
#X connect 19 0 18 0;
#X connect 20 0 10 0;
#X connect 21 0 22 0;
#X connect 23 0 28 0;
#X connect 24 0 26 0;
#X connect 25 0 24 0;
#X connect 26 0 27 0;
#X connect 28 0 21 0;
#X coords 0 -1 1 1 100 140 2 100 100;
