#N canvas 279 182 450 300 10;
#X obj 69 261 shell;
#X obj 69 284 print;
#X msg 69 238 winff;
#X obj 100 100 cnv 15 100 130 empty empty apps 20 12 0 14 -1 -262144
0;
#X obj 104 125 bng 15 250 50 0 empty empty winff_encoder 17 7 0 10
-262144 -1 -262144;
#X obj 69 336 shell;
#X obj 69 359 print;
#X msg 69 312 gimp;
#X obj 124 142 bng 15 250 50 0 empty empty gimp 17 7 0 10 -262144 -1
-262144;
#X obj 104 161 bng 15 250 50 0 empty empty blender_3d 17 7 0 10 -262144
-1 -262144;
#X obj 113 263 shell;
#X obj 113 286 print;
#X obj 116 338 shell;
#X obj 116 361 print;
#X obj 25 260 shell;
#X obj 25 283 print;
#X msg 25 237 vlc;
#X obj 121 178 bng 15 250 50 0 empty empty vlc 17 7 0 10 -262144 -1
-262144;
#X msg 116 314 nvidia-settings;
#X obj 104 195 bng 15 250 50 0 empty empty nvidia 17 7 0 10 -4034 -262144
-262144;
#X msg 113 239 blender -W;
#X obj 186 265 shell;
#X obj 186 288 print;
#X msg 186 241 gnome-system-monitor;
#X obj 122 211 bng 15 250 50 0 empty empty task 17 7 0 10 -258113 -4034
-262144;
#X connect 0 0 1 0;
#X connect 2 0 0 0;
#X connect 4 0 2 0;
#X connect 5 0 6 0;
#X connect 7 0 5 0;
#X connect 8 0 7 0;
#X connect 9 0 20 0;
#X connect 10 0 11 0;
#X connect 12 0 13 0;
#X connect 14 0 15 0;
#X connect 16 0 14 0;
#X connect 17 0 16 0;
#X connect 18 0 12 0;
#X connect 19 0 18 0;
#X connect 20 0 10 0;
#X connect 21 0 22 0;
#X connect 23 0 21 0;
#X connect 24 0 23 0;
#X coords 0 -1 1 1 100 130 2 100 100;
