#N canvas 405 349 450 300 10;
#X obj -99 -808 sendOSC;
#X floatatom -99 -779 5 0 0 0 - - -;
#X msg -201 -878 disconnect;
#X msg -104 -900 typetags 1;
#X msg -99 -861 typetags 0;
#X msg -139 -952 [;
#X msg -49 -842 ];
#X floatatom -60 -778 5 0 0 0 - - -;
#X text -74 -931 bundleDepth;
#X text -261 -903 switch usage of typetags;
#X text -252 -879 on/off.;
#X text -31 -901 default: on;
#X obj -115 -929 r osc;
#X msg -213 -921 send /panic/;
#X connect 0 0 1 0;
#X connect 0 1 7 0;
#X connect 2 0 0 0;
#X connect 3 0 0 0;
#X connect 4 0 0 0;
#X connect 5 0 0 0;
#X connect 6 0 0 0;
#X connect 12 0 0 0;
#X connect 13 0 0 0;
