#N canvas 283 328 628 300 10;
#X msg 201 71 send /quad/layer/up;
#X obj 203 215 s osc;
#X msg 214 130 send /quad/layer/down;
#X msg 120 35 send /quad/cam/snapshot;
#X msg 48 102 send /quad/img/snapshot;
#X obj 355 190 s osc;
#X msg 26 -9 send /quad/fill/screen;
#X msg 333 26 send /quad/new;
#X msg 438 24 send /quad/mask/goback;
#X msg 452 71 send /quad/mask/undo;
#X msg 443 125 send /quad/fill/screen;
#X connect 0 0 1 0;
#X connect 2 0 1 0;
#X connect 3 0 1 0;
#X connect 4 0 1 0;
#X connect 6 0 1 0;
#X connect 7 0 5 0;
#X connect 8 0 5 0;
#X connect 9 0 5 0;
#X connect 10 0 5 0;
