#N canvas 505 170 450 300 10;
#X floatatom 129 -24 5 0 0 0 - - -;
#X obj 129 -54 key;
#X obj 168 -57 keyup;
#X floatatom 168 -24 5 0 0 0 - - -;
#X obj 209 -57 keyname;
#X symbolatom 248 2 10 0 0 0 - - -;
#X floatatom 209 -28 5 0 0 0 - - -;
#X obj 1 1 cnv 15 100 50 empty empty keys 20 12 0 14 -1 -262144 0;
#X symbolatom 2 31 10 0 0 0 - - -;
#X floatatom 67 31 5 0 0 0 - - -;
#X floatatom 66 11 5 0 0 0 - - -;
#X connect 0 0 9 0;
#X connect 1 0 0 0;
#X connect 2 0 3 0;
#X connect 4 0 6 0;
#X connect 4 1 5 0;
#X connect 5 0 8 0;
#X connect 6 0 10 0;
#X coords 0 -1 1 1 100 50 2 1 1;
