#N canvas 1 79 1265 944 10;
#X obj 351 580 s osc;
#X msg 382 337 send /active/placement/reset;
#X obj 418 518 float;
#X obj 401 469 float;
#X msg 418 545 send /active/placement/x \$1;
#X msg 401 497 send /active/placement/y \$1;
#X obj 209 456 float;
#X obj 215 515 float;
#X msg 209 484 send /active/placement/w \$1;
#X msg 215 543 send /active/placement/h \$1;
#X obj 100 100 cnv 15 200 200 empty empty content_placement 10 12 0
16 -1 -262144 0;
#X floatatom 247 147 4 -1600 1600 0 - - -;
#X floatatom 248 167 4 -1600 1600 0 - - -;
#X obj 113 149 hsl 128 15 -1600 1600 0 0 empty empty displacement_x
5 8 0 10 -66577 -262144 -262144 7200 1;
#X obj 112 169 hsl 128 15 -1600 1600 0 0 empty empty displacement_y
5 8 0 10 -66577 -262144 -262144 7000 1;
#X floatatom 247 196 4 0 2400 0 - - -;
#X floatatom 248 216 4 -1600 1600 0 - - -;
#X obj 113 198 hsl 128 15 0 2400 0 0 empty empty width 5 8 0 10 -66577
-262144 -262144 6700 1;
#X obj 112 218 hsl 128 15 0 2400 0 0 empty empty height 5 8 0 10 -66577
-262144 -262144 3100 1;
#X obj 406 135 float;
#X obj 337 218 float;
#X obj 382 310 float;
#X obj 111 245 bng 15 250 50 0 empty empty reset 17 7 0 10 -258113
-4034 -262144;
#X obj 113 279 tgl 15 0 empty empty dimensions_(1280x720)beta 17 7
0 10 -99865 -191407 -262144 0 1;
#X obj 109 127 tgl 15 0 empty empty on/off 17 7 0 10 -99865 -262144
-262144 1 1;
#X msg 337 242 send /active/placement \$1;
#X msg 405 163 send /active/placement/dimensions 1280 720;
#X connect 1 0 0 0;
#X connect 2 0 4 0;
#X connect 3 0 5 0;
#X connect 4 0 0 0;
#X connect 5 0 0 0;
#X connect 6 0 8 0;
#X connect 7 0 9 0;
#X connect 8 0 0 0;
#X connect 9 0 0 0;
#X connect 11 0 2 0;
#X connect 12 0 3 0;
#X connect 13 0 11 0;
#X connect 13 0 2 0;
#X connect 14 0 12 0;
#X connect 14 0 3 0;
#X connect 15 0 6 0;
#X connect 16 0 7 0;
#X connect 17 0 15 0;
#X connect 17 0 6 0;
#X connect 18 0 16 0;
#X connect 18 0 7 0;
#X connect 19 0 26 0;
#X connect 20 0 25 0;
#X connect 21 0 1 0;
#X connect 22 0 21 0;
#X connect 23 0 19 0;
#X connect 24 0 20 0;
#X connect 25 0 0 0;
#X connect 26 0 0 0;
#X coords 0 -1 1 1 200 200 2 100 100;
