#N canvas 354 340 342 303 10;
#X obj 91 219 print;
#X msg 7 111 ./lpmt.sh;
#X obj 1 1 cnv 15 130 90 empty empty Start_Displays 10 12 0 14 -33289
-262144 0;
#X obj 11 28 bng 25 250 50 0 empty empty 1 10 13 0 10 -258113 -4034
-262144;
#X obj 90 191 shell;
#X obj 39 28 bng 25 250 50 0 empty empty 2 10 13 0 10 -258113 -4034
-262144;
#X obj 67 28 bng 25 250 50 0 empty empty 3 10 13 0 10 -258113 -4034
-262144;
#X obj 95 27 bng 25 250 50 0 empty empty 4 10 13 0 10 -258113 -4034
-262144;
#X obj 10 57 bng 25 250 50 0 empty empty 5 10 13 0 10 -258113 -4034
-262144;
#X obj 39 57 bng 25 250 50 0 empty empty 6 10 13 0 10 -258113 -4034
-262144;
#X obj 68 57 bng 25 250 50 0 empty empty 7 10 13 0 10 -258113 -4034
-262144;
#X obj 96 57 bng 25 250 50 0 empty empty 8 10 13 0 10 -258113 -4034
-262144;
#X obj 143 220 print;
#X obj 142 192 shell;
#X msg 84 116 gimp;
#X connect 1 0 4 0;
#X connect 3 0 1 0;
#X connect 4 0 0 0;
#X connect 5 0 14 0;
#X connect 13 0 12 0;
#X connect 14 0 13 0;
#X coords 0 -1 1 1 130 90 2 1 1;
