#N canvas 143 235 802 627 10;
#X msg -199 68 send /projection/timeline/show;
#X obj -133 287 s osc;
#X obj 1 1 cnv 15 300 180 empty empty Timeline_set 20 12 0 14 -1 -262144
0;
#X obj 19 39 tgl 15 0 empty empty use_timeline 17 7 0 10 -99865 -262144
-262144 0 1;
#X obj 129 41 hsl 128 15 10 3600 0 0 empty empty duration -2 -8 0 10
-262144 -1 -262144 1400 1;
#X msg -96 -204 send /projection/timeline/duration \$1;
#X msg 61 -52 send /projection/timeline/start;
#X obj 19 63 tgl 15 0 empty empty show_timeline 17 7 0 10 -99865 -262144
-262144 1 1;
#X obj -5 -170 tgl 15 0 empty empty empty 17 7 0 10 -262144 -1 -1 0
1;
#X msg -197 -44 send /projection/timeline/toggle;
#X obj 166 85 bng 60 250 50 0 empty empty play/stop -1 30 0 11 -258113
-4034 -1;
#X obj 189 -93 s osc;
#X obj 20 87 tgl 15 0 empty empty use_tl_color 17 7 0 10 -99865 -262144
-262144 0 1;
#X msg 246 -149 send /active/timeline/color \$1;
#X obj 20 135 tgl 15 0 empty empty use_tl_slides 17 7 0 10 -99865 -262144
-262144 0 1;
#X msg 246 -126 send /active/timeline/slides \$1;
#X msg 240 -103 send /active/timeline/alpha \$1;
#X obj 20 113 tgl 15 0 empty empty use_tl_alpha 17 7 0 10 -99865 -262144
-262144 0 1;
#X msg 29 -148 send /projection/timeline/use \$1;
#X connect 0 0 1 0;
#X connect 3 0 9 0;
#X connect 4 0 5 0;
#X connect 5 0 1 0;
#X connect 6 0 1 0;
#X connect 7 0 0 0;
#X connect 8 0 18 0;
#X connect 9 0 1 0;
#X connect 10 0 6 0;
#X connect 12 0 13 0;
#X connect 13 0 11 0;
#X connect 14 0 15 0;
#X connect 15 0 11 0;
#X connect 16 0 11 0;
#X connect 17 0 16 0;
#X connect 18 0 1 0;
#X coords 0 -1 1 1 300 180 2 1 1;
