#N canvas 14 79 1265 944 10;
#X obj -214 -45 float;
#X obj 487 -105 float;
#X obj 475 359 float;
#X obj -189 360 float;
#X obj -231 37 s osc;
#X obj 479 -12 s osc;
#X obj 473 440 s osc;
#X obj -189 437 s osc;
#X floatatom -171 -45 5 0 0 0 - - -;
#X obj -103 -45 +;
#X obj -129 -47 abs;
#X floatatom 526 -105 5 0 0 0 - - -;
#X obj 607 -106 +;
#X obj 565 -107 abs;
#X floatatom -146 362 5 0 0 0 - - -;
#X obj -71 361 +;
#X obj -104 360 abs;
#X floatatom 525 359 5 0 0 0 - - -;
#X obj 600 358 +;
#X obj 567 357 abs;
#X obj 1 2 cnv 15 280 280 empty empty grid 20 12 0 14 -1 -262144 0
;
#X text 159 144 comment;
#X floatatom 205 253 5 -1 2 0 - - #1;
#X floatatom 242 206 5 0 0 0 - - -;
#X floatatom 45 252 5 0 0 0 - - -;
#X floatatom 3 203 5 0 0 0 - - -;
#X floatatom 244 76 5 0 0 0 - - #1;
#X floatatom 205 30 5 0 0 0 - - -;
#X floatatom 47 29 5 0 0 0 - - #1;
#X floatatom 3 73 5 0 0 0 - - -;
#X obj 37 49 grid quad0_corner0 100 0 1 100 0 1 1 0.01 0.01 4 4 37
49;
#X obj 138 49 grid quad0_corner0 100 0 1 100 0 1 1 0.01 0.01 4 4 188
49;
#X obj 37 150 grid quad0_corner0 100 0 1 100 0 1 1 0.01 0.01 4 4 37
200;
#X obj 138 150 grid quad0_corner0 100 0 1 100 0 1 1 0.01 0.01 4 4 188
200;
#X msg 98 -113 color 50 50 50;
#X obj 91 22 bng 15 250 50 0 empty empty set 17 7 0 10 -262144 -1 -262144
;
#X msg 129 293 -1;
#X text 5 -23 QUAD 0;
#X msg -216 -14 send /corners/x 0 0 \$1;
#X msg -220 10 send /corners/y 0 0 \$1;
#X msg -191 387 send /corners/x 0 3 \$1;
#X msg -190 414 send /corners/y 0 3 \$1;
#X msg 476 387 send /corners/x 0 2 \$1;
#X msg 474 414 send /corners/y 0 2 \$1;
#X msg 487 -77 send /corners/x 0 1 \$1;
#X msg 522 -52 send /corners/y 0 1 \$1;
#X msg -15 -61 values \$1 \$2;
#X msg -15 -95 send 0 1;
#X msg -142 98 values \$1 \$2;
#X msg -142 64 send 0 0.5;
#X msg 328 201 values \$1 \$2;
#X msg 328 167 send 0.5 0.5;
#X msg 259 -58 values \$1 \$2;
#X msg 259 -92 send 0.5 1;
#X obj 137 22 bng 15 250 50 0 empty empty reset 17 7 0 10 -262144 -1
-262144;
#X connect 0 0 38 0;
#X connect 1 0 44 0;
#X connect 2 0 42 0;
#X connect 3 0 40 0;
#X connect 8 0 9 1;
#X connect 9 0 10 0;
#X connect 10 0 39 0;
#X connect 11 0 12 1;
#X connect 12 0 13 0;
#X connect 13 0 45 0;
#X connect 14 0 15 1;
#X connect 15 0 16 0;
#X connect 16 0 41 0;
#X connect 17 0 18 1;
#X connect 18 0 19 0;
#X connect 19 0 43 0;
#X connect 30 0 0 0;
#X connect 30 0 29 0;
#X connect 30 1 9 0;
#X connect 30 1 28 0;
#X connect 31 0 1 0;
#X connect 31 0 26 0;
#X connect 31 1 12 0;
#X connect 31 1 27 0;
#X connect 32 0 3 0;
#X connect 32 0 25 0;
#X connect 32 1 15 0;
#X connect 32 1 24 0;
#X connect 33 0 2 0;
#X connect 33 0 23 0;
#X connect 33 1 18 0;
#X connect 33 1 22 0;
#X connect 34 0 30 0;
#X connect 34 0 31 0;
#X connect 34 0 32 0;
#X connect 34 0 33 0;
#X connect 35 0 34 0;
#X connect 35 0 36 0;
#X connect 36 0 14 0;
#X connect 36 0 17 0;
#X connect 36 0 11 0;
#X connect 36 0 8 0;
#X connect 38 0 4 0;
#X connect 39 0 4 0;
#X connect 40 0 7 0;
#X connect 41 0 7 0;
#X connect 42 0 6 0;
#X connect 43 0 6 0;
#X connect 44 0 5 0;
#X connect 45 0 5 0;
#X connect 46 0 30 0;
#X connect 47 0 46 0;
#X connect 48 0 32 0;
#X connect 49 0 48 0;
#X connect 50 0 33 0;
#X connect 51 0 50 0;
#X connect 52 0 31 0;
#X connect 53 0 52 0;
#X connect 54 0 47 0;
#X connect 54 0 53 0;
#X connect 54 0 51 0;
#X connect 54 0 49 0;
#X coords 0 -1 1 1 280 280 2 1 1;
